<svg xmlns="http://www.w3.org/2000/svg" xmlns:xlink="http://www.w3.org/1999/xlink" width="2000" zoomAndPan="magnify" viewBox="0 0 1500 1499.999933" height="2000" preserveAspectRatio="xMidYMid meet" version="1.0"><defs><clipPath id="840a6f0d65"><path d="M 0 0 L 1499.992188 0 L 1499.992188 1499.992188 L 0 1499.992188 Z M 0 0 " clip-rule="nonzero"/></clipPath><clipPath id="3baaeef79a"><path d="M 1499.992188 337.5 L 1499.992188 1162.492188 C 1499.992188 1348.890625 1348.890625 1499.992188 1162.492188 1499.992188 L 337.5 1499.992188 C 151.101562 1499.992188 0 1348.890625 0 1162.492188 L 0 337.5 C 0 151.101562 151.101562 0 337.5 0 L 1162.492188 0 C 1348.890625 0 1499.992188 151.101562 1499.992188 337.5 Z M 1499.992188 337.5 " clip-rule="nonzero"/></clipPath><clipPath id="023e90840f"><path d="M 0 0 L 1499.992188 0 L 1499.992188 1499.992188 L 0 1499.992188 Z M 0 0 " clip-rule="nonzero"/></clipPath><clipPath id="d400f24331"><path d="M 1499.992188 337.5 L 1499.992188 1162.492188 C 1499.992188 1348.890625 1348.890625 1499.992188 1162.492188 1499.992188 L 337.5 1499.992188 C 151.101562 1499.992188 0 1348.890625 0 1162.492188 L 0 337.5 C 0 151.101562 151.101562 0 337.5 0 L 1162.492188 0 C 1348.890625 0 1499.992188 151.101562 1499.992188 337.5 Z M 1499.992188 337.5 " clip-rule="nonzero"/></clipPath><clipPath id="2c67a64b9c"><rect x="0" width="1500" y="0" height="1500"/></clipPath><clipPath id="a9c0d37b0a"><path d="M 294.507812 516 L 614 516 L 614 984 L 294.507812 984 Z M 294.507812 516 " clip-rule="nonzero"/></clipPath><clipPath id="fee1949345"><path d="M 120.601562 694.878906 L 1379.398438 694.878906 L 1379.398438 805.121094 L 120.601562 805.121094 Z M 120.601562 694.878906 " clip-rule="nonzero"/></clipPath><clipPath id="168e3a1341"><path d="M 0.601562 0.878906 L 1259.398438 0.878906 L 1259.398438 111.121094 L 0.601562 111.121094 Z M 0.601562 0.878906 " clip-rule="nonzero"/></clipPath><clipPath id="ca68330c2b"><rect x="0" width="1260" y="0" height="112"/></clipPath></defs><g clip-path="url(#840a6f0d65)"><g clip-path="url(#3baaeef79a)"><g transform="matrix(1, 0, 0, 1, 0, 0.000000000000112861)"><g clip-path="url(#2c67a64b9c)"><g clip-path="url(#023e90840f)"><g clip-path="url(#d400f24331)"><path fill="#1e1e1e" d="M 0 0 L 1499.992188 0 L 1499.992188 1499.992188 L 0 1499.992188 Z M 0 0 " fill-opacity="1" fill-rule="nonzero"/></g></g></g></g></g></g><path fill="#ffffff" d="M 536.90625 359.816406 L 450.253906 446.464844 L 753.785156 749.996094 L 450.253906 1053.53125 L 536.90625 1140.179688 L 927.085938 749.996094 L 536.90625 359.816406 " fill-opacity="1" fill-rule="nonzero"/><g clip-path="url(#a9c0d37b0a)"><path fill="#ffffff" d="M 380.183594 516.539062 L 293.53125 603.1875 L 440.34375 749.996094 L 293.53125 896.808594 L 380.183594 983.457031 L 613.558594 749.996094 L 380.183594 516.539062 " fill-opacity="1" fill-rule="nonzero"/></g><path fill="#ffffff" d="M 693.628906 203.09375 L 606.976562 289.742188 L 1067.230469 749.996094 L 606.976562 1210.25 L 693.628906 1296.902344 L 1240.53125 749.996094 L 693.628906 203.09375 " fill-opacity="1" fill-rule="nonzero"/><g clip-path="url(#fee1949345)"><g transform="matrix(1, 0, 0, 1, 120, 694)"><g clip-path="url(#ca68330c2b)"><g clip-path="url(#168e3a1341)"><path fill="#ffffff" d="M 0.601562 0.878906 L 1259.347656 0.878906 L 1259.347656 111.121094 L 0.601562 111.121094 Z M 0.601562 0.878906 " fill-opacity="1" fill-rule="nonzero"/></g></g></g></g></svg>