<svg xmlns="http://www.w3.org/2000/svg" xmlns:xlink="http://www.w3.org/1999/xlink" width="2000" zoomAndPan="magnify" viewBox="0 0 1500 1499.999933" height="2000" preserveAspectRatio="xMidYMid meet" version="1.0"><defs><clipPath id="d7fadb3646"><path d="M 313.761719 526 L 620 526 L 620 974 L 313.761719 974 Z M 313.761719 526 " clip-rule="nonzero"/></clipPath><clipPath id="4489e8e1a3"><path d="M 147.203125 694.554688 L 1352.796875 694.554688 L 1352.796875 805.445312 L 147.203125 805.445312 Z M 147.203125 694.554688 " clip-rule="nonzero"/></clipPath><clipPath id="8529ecc14e"><path d="M 0.203125 0.554688 L 1205.796875 0.554688 L 1205.796875 111.445312 L 0.203125 111.445312 Z M 0.203125 0.554688 " clip-rule="nonzero"/></clipPath><clipPath id="a63322fb75"><rect x="0" width="1206" y="0" height="112"/></clipPath></defs><path fill="#ffffff" d="M 545.914062 376.304688 L 462.925781 459.292969 L 753.628906 749.996094 L 462.925781 1040.703125 L 545.914062 1123.691406 L 919.605469 749.996094 L 545.914062 376.304688 " fill-opacity="1" fill-rule="nonzero"/><g clip-path="url(#d7fadb3646)"><path fill="#ffffff" d="M 395.816406 526.402344 L 312.828125 609.390625 L 453.433594 749.996094 L 312.828125 890.601562 L 395.816406 973.589844 L 619.328125 749.996094 L 395.816406 526.402344 " fill-opacity="1" fill-rule="nonzero"/></g><path fill="#ffffff" d="M 696.015625 226.207031 L 613.027344 309.195312 L 1053.828125 749.996094 L 613.027344 1190.800781 L 696.015625 1273.789062 L 1219.804688 749.996094 L 696.015625 226.207031 " fill-opacity="1" fill-rule="nonzero"/><g clip-path="url(#4489e8e1a3)"><g transform="matrix(1, 0, 0, 1, 147, 694)"><g clip-path="url(#a63322fb75)"><g clip-path="url(#8529ecc14e)"><path fill="#ffffff" d="M 0.203125 0.554688 L 1205.6875 0.554688 L 1205.6875 111.445312 L 0.203125 111.445312 Z M 0.203125 0.554688 " fill-opacity="1" fill-rule="nonzero"/></g></g></g></g></svg>